<svg xmlns="http://www.w3.org/2000/svg" viewBox="170 40 340 340">
  <g transform="translate(340,230)">
    <g transform="rotate(-90)">
      <path d="M0 0 L150 0 A150 150 0 0 1 106.07 106.07 Z" fill="#7F77DD"/>
      <path d="M0 0 L106.07 106.07 A150 150 0 0 1 0 150 Z" fill="#1D9E75"/>
      <path d="M0 0 L0 150 A150 150 0 0 1 -106.07 106.07 Z" fill="#D85A30"/>
      <path d="M0 0 L-106.07 106.07 A150 150 0 0 1 -150 0 Z" fill="#D4537E"/>
      <path d="M0 0 L-150 0 A150 150 0 0 1 -106.07 -106.07 Z" fill="#378ADD"/>
      <path d="M0 0 L-106.07 -106.07 A150 150 0 0 1 0 -150 Z" fill="#EF9F27"/>
      <path d="M0 0 L0 -150 A150 150 0 0 1 106.07 -106.07 Z" fill="#639922"/>
      <path d="M0 0 L106.07 -106.07 A150 150 0 0 1 150 0 Z" fill="#F09595"/>
    </g>
    <circle cx="0" cy="0" r="150" fill="none" stroke="#1a1a1a" stroke-width="3"/>
    <circle cx="0" cy="0" r="22" fill="#ffffff" stroke="#1a1a1a" stroke-width="3"/>
    <path d="M0 -190 L-22 -150 L22 -150 Z" fill="#1a1a1a"/>
  </g>
</svg>
